<?xml version="1.0" standalone="no"?>
<!DOCTYPE svg PUBLIC "-//W3C//DTD SVG 20010904//EN"
 "http://www.w3.org/TR/2001/REC-SVG-20010904/DTD/svg10.dtd">
<svg version="1.0" xmlns="http://www.w3.org/2000/svg"
 width="422.000000pt" height="422.000000pt" viewBox="0 0 422.000000 422.000000"
 preserveAspectRatio="xMidYMid meet">
<metadata>
Created by potrace 1.14, written by Peter Selinger 2001-2017
</metadata>
<g transform="translate(0.000000,422.000000) scale(0.100000,-0.100000)"
fill="#000000" stroke="none">
<path d="M1690 3371 c0 -65 5 -133 11 -152 16 -47 62 -93 126 -126 l53 -28 0
-61 c0 -53 11 -84 30 -84 9 0 6 153 -3 168 -5 7 -32 24 -60 38 -100 50 -119
83 -121 201 -1 51 3 83 9 83 6 0 33 -15 60 -33 59 -38 85 -84 85 -150 0 -50
15 -91 30 -82 10 6 6 140 -5 176 -14 46 -55 87 -126 128 -39 23 -75 41 -80 41
-5 0 -9 -53 -9 -119z"/>
<path d="M2123 3451 c-114 -67 -132 -97 -138 -220 -5 -120 30 -118 37 1 3 48
10 76 25 95 19 27 97 81 118 82 7 1 10 -31 9 -83 -3 -102 -19 -138 -80 -174
-117 -70 -108 -59 -110 -142 -1 -85 2 -96 22 -79 9 8 14 32 14 73 l0 62 56 29
c66 35 109 81 123 132 16 56 14 263 -1 262 -7 0 -41 -17 -75 -38z"/>
<path d="M1416 3242 c2 -110 10 -136 53 -179 33 -34 140 -97 148 -89 8 8 -25
56 -39 56 -19 0 -77 50 -93 80 -15 30 -21 150 -7 150 23 -1 140 -81 159 -109
20 -29 23 -47 23 -122 l0 -88 70 -42 c39 -23 73 -39 77 -36 13 13 -9 38 -56
64 l-49 28 -4 91 c-3 81 -7 96 -31 128 -24 31 -125 98 -224 149 l-29 15 2 -96z"/>
<path d="M2387 3285 c-168 -99 -187 -125 -187 -252 l0 -78 -51 -28 c-46 -25
-69 -51 -56 -63 3 -3 36 12 74 33 l68 39 2 86 c2 123 16 145 131 211 l62 36 0
-67 c0 -83 -20 -120 -89 -162 -85 -53 -78 -88 8 -38 67 39 118 91 127 131 8
39 12 197 4 201 -3 2 -45 -21 -93 -49z"/>
<path d="M1335 2985 c-66 -20 -201 -105 -166 -105 5 0 45 -21 88 -46 155 -93
197 -98 304 -36 l70 41 48 -29 c48 -30 71 -36 84 -23 8 8 -28 34 -94 68 l-45
23 -74 -42 c-90 -53 -131 -54 -218 -5 -91 51 -90 49 -27 84 70 40 122 40 190
1 42 -25 75 -29 75 -9 0 13 -90 60 -145 76 -41 12 -57 12 -90 2z"/>
<path d="M2465 2981 c-28 -9 -72 -31 -99 -48 -43 -27 -47 -31 -28 -37 14 -5
36 1 64 18 73 42 108 43 183 5 75 -37 75 -38 -20 -90 -85 -46 -131 -45 -220 9
l-69 41 -66 -35 c-81 -44 -87 -50 -62 -58 14 -5 39 3 74 23 l53 29 64 -39 c99
-60 141 -57 271 17 147 83 143 72 47 125 -101 57 -128 62 -192 40z"/>
<path d="M1390 2704 c-45 -18 -229 -129 -222 -135 4 -4 41 -27 82 -50 99 -56
148 -58 244 -9 37 19 72 41 78 47 19 23 -37 15 -88 -12 -64 -34 -113 -33 -180
6 -30 17 -54 32 -54 34 0 2 33 22 74 44 52 29 85 41 114 41 39 0 56 -7 146
-60 l39 -24 51 27 c28 15 62 36 75 46 43 33 -3 33 -65 0 l-56 -30 -59 36 c-59
36 -141 54 -179 39z"/>
<path d="M2390 2697 c-14 -7 -46 -26 -72 -41 l-48 -28 -55 32 c-40 23 -59 29
-71 22 -15 -8 -11 -14 25 -36 100 -64 100 -64 180 -16 95 56 124 56 225 1 43
-24 74 -47 69 -51 -24 -24 -111 -60 -142 -60 -20 0 -60 13 -92 29 -37 20 -60
27 -69 21 -20 -12 -9 -21 70 -62 95 -49 141 -46 248 17 94 55 99 42 -47 125
-104 59 -173 74 -221 47z"/>
<path d="M1732 2567 l-72 -42 0 -82 c0 -123 -13 -145 -129 -210 l-63 -35 4 73
c4 85 25 122 88 158 78 43 80 82 2 41 -60 -32 -109 -75 -129 -113 -15 -30 -27
-214 -14 -222 4 -2 47 20 96 48 165 95 178 111 185 239 l5 91 47 25 c41 22 68
55 56 67 -2 2 -36 -15 -76 -38z"/>
<path d="M2090 2598 c0 -21 12 -33 63 -62 l47 -28 0 -74 c0 -77 13 -123 46
-160 21 -23 226 -146 233 -139 10 11 6 154 -5 194 -7 24 -25 57 -40 72 -30 31
-140 100 -147 93 -13 -14 10 -42 57 -71 66 -40 86 -79 86 -162 0 -34 -2 -61
-4 -61 -10 0 -142 86 -154 100 -25 29 -33 66 -33 140 0 41 -3 80 -7 86 -14 21
-142 86 -142 72z"/>
<path d="M1898 2539 c-14 -8 -18 -24 -18 -74 l0 -65 -42 -21 c-127 -63 -147
-103 -148 -282 l0 -127 43 21 c143 73 178 118 182 237 2 86 -1 98 -21 81 -9
-7 -14 -31 -14 -66 0 -74 -27 -120 -93 -160 -51 -31 -52 -31 -57 -10 -3 11 -5
52 -3 89 2 93 24 125 113 172 39 21 71 40 71 44 1 6 5 173 4 172 0 0 -8 -5
-17 -11z"/>
<path d="M1985 2467 c2 -45 3 -85 4 -88 1 -3 27 -20 59 -37 69 -37 110 -75
119 -111 4 -14 6 -53 6 -86 -1 -105 3 -98 -52 -68 -67 38 -94 80 -99 156 -4
58 -15 87 -32 87 -3 0 -6 -38 -4 -83 2 -82 17 -131 50 -164 13 -14 161 -103
170 -103 3 0 4 57 4 128 -2 179 -23 218 -147 281 l-43 21 0 65 c0 52 -3 66
-19 74 -17 10 -18 5 -16 -72z"/>
<path d="M1638 1743 c7 -3 16 -2 19 1 4 3 -2 6 -13 5 -11 0 -14 -3 -6 -6z"/>
<path d="M1670 1720 c0 -16 5 -30 10 -30 6 0 10 11 10 24 0 13 6 27 13 29 6 3
2 6 -10 6 -19 1 -23 -4 -23 -29z"/>
<path d="M1901 1685 c-1 -39 2 -65 8 -65 6 0 9 14 7 30 -2 17 1 30 6 30 5 0 6
6 1 13 -4 6 -6 22 -4 35 1 12 -2 22 -7 22 -5 0 -10 -29 -11 -65z"/>
<path d="M1988 1724 c3 -16 -1 -30 -9 -35 -10 -6 -10 -9 -1 -9 7 0 12 -13 12
-30 0 -16 3 -30 8 -30 4 0 7 29 7 65 0 42 -4 65 -11 65 -7 0 -9 -10 -6 -26z"/>
<path d="M2194 1685 c0 -42 4 -65 12 -65 7 0 9 10 6 26 -3 16 1 30 9 35 10 6
10 9 2 9 -7 0 -13 11 -13 24 0 13 6 27 13 29 6 3 3 6 -8 6 -19 1 -21 -5 -21
-64z"/>
<path d="M2503 1683 c9 -9 493 -10 532 -2 17 4 -98 7 -254 8 -156 1 -281 -2
-278 -6z"/>
<path d="M850 1673 c0 -9 539 -8 547 1 4 3 -118 6 -270 6 -153 0 -277 -3 -277
-7z"/>
<path d="M1670 1650 c0 -16 5 -30 10 -30 6 0 10 14 10 30 0 17 -4 30 -10 30
-5 0 -10 -13 -10 -30z"/>
<path d="M2238 1623 c7 -3 16 -2 19 1 4 3 -2 6 -13 5 -11 0 -14 -3 -6 -6z"/>
<path d="M481 1537 c-48 -17 -74 -55 -73 -108 1 -42 5 -48 81 -122 93 -89 111
-114 106 -142 -2 -11 -4 -23 -4 -26 -1 -4 -12 -17 -25 -31 -52 -51 -138 -24
-152 48 -8 42 -14 39 -18 -11 -3 -26 1 -42 14 -55 21 -21 95 -35 138 -25 49
10 96 76 87 121 -2 11 -4 26 -4 35 -1 14 -29 43 -157 167 -46 44 -27 127 31
132 49 5 66 -1 85 -32 l19 -31 -1 41 c0 38 -3 42 -27 43 -14 0 -35 2 -46 4
-11 2 -35 -2 -54 -8z"/>
<path d="M3242 1521 c23 -12 51 -47 100 -130 l69 -113 -3 -91 c-3 -86 -4 -92
-28 -104 -22 -11 -17 -13 50 -12 41 0 68 3 60 6 -29 12 -36 36 -35 118 l1 83
63 104 c34 56 76 115 93 130 l31 27 -64 0 c-46 -1 -59 -3 -46 -10 9 -6 17 -15
17 -20 0 -13 -103 -199 -110 -199 -3 0 -27 42 -54 93 -34 65 -46 100 -42 114
6 20 3 21 -64 21 l-70 0 32 -17z"/>
<path d="M729 1495 c0 0 -3 -16 -5 -35 -5 -35 -5 -35 11 -12 14 18 25 22 76
22 l59 0 1 -37 c3 -140 -4 -320 -12 -328 -17 -17 -9 -21 43 -23 49 -1 50 0 30
14 -21 15 -22 22 -22 195 l0 179 58 0 c60 0 75 -6 85 -30 4 -8 5 0 4 18 l-2
33 -163 2 c-89 1 -162 2 -163 2z"/>
<path d="M2260 1489 c-63 -3 -107 -6 -98 -7 9 -1 20 -7 24 -14 4 -6 7 -88 7
-182 0 -157 -2 -171 -20 -186 -19 -15 -12 -16 98 -16 l119 1 15 44 c20 59 19
63 -5 23 -24 -39 -46 -49 -114 -48 l-51 1 -3 83 c-3 90 -8 85 68 84 19 0 39
-7 46 -17 10 -13 12 -10 16 20 4 38 -6 56 -16 30 -4 -12 -19 -15 -61 -14 l-55
2 0 89 0 88 64 0 c55 0 67 -3 80 -21 14 -21 15 -21 14 10 -1 17 -4 33 -7 34
-3 1 -58 0 -121 -4z"/>
<path d="M3023 1489 c-51 -15 -78 -72 -59 -126 4 -12 38 -50 75 -85 38 -35 72
-74 76 -87 11 -36 -13 -80 -49 -89 -57 -16 -103 17 -107 76 -1 9 -4 4 -8 -13
-14 -62 13 -85 98 -85 72 0 108 45 103 127 -1 13 -34 53 -82 99 -90 87 -100
117 -55 153 38 29 89 18 105 -23 7 -17 9 -15 9 17 1 29 -3 37 -16 38 -10 0
-27 2 -38 4 -11 1 -35 -1 -52 -6z"/>
<path d="M1287 1459 c-8 -19 -42 -101 -77 -184 -39 -94 -72 -158 -88 -172
l-26 -22 52 2 c40 1 49 4 41 14 -8 8 -7 23 1 50 24 74 29 78 110 77 l73 0 20
-53 c15 -39 18 -58 10 -70 -9 -14 -4 -16 48 -17 32 0 55 4 53 8 -3 4 -11 8
-18 8 -15 0 -17 5 -107 219 -38 90 -71 166 -73 169 -3 2 -11 -11 -19 -29z m42
-119 c17 -43 31 -83 31 -89 0 -5 -30 -9 -66 -9 -45 0 -64 4 -61 12 50 134 62
166 64 166 1 0 15 -36 32 -80z"/>
<path d="M1545 1480 c4 -6 10 -8 14 -5 12 7 31 -18 91 -119 51 -85 53 -93 55
-163 1 -66 -1 -76 -21 -92 -23 -18 -23 -18 37 -17 51 1 57 3 42 14 -14 10 -18
29 -19 88 -2 73 -1 75 54 167 60 100 79 122 108 130 10 2 -10 5 -46 5 -36 0
-59 -2 -52 -5 20 -8 14 -32 -24 -102 -57 -102 -52 -102 -102 -5 -42 83 -43 88
-26 101 15 11 9 13 -50 13 -43 0 -65 -4 -61 -10z"/>
<path d="M2670 1480 c0 -6 -34 -92 -77 -192 -53 -127 -82 -182 -95 -186 -32
-8 -19 -17 27 -18 40 0 44 2 39 18 -3 11 4 43 15 71 l21 52 75 0 75 0 21 -54
c17 -40 20 -58 12 -70 -9 -15 -5 -17 38 -17 27 0 49 2 49 3 0 2 -8 13 -17 23
-10 11 -51 101 -92 200 -64 157 -91 207 -91 170z m39 -145 c17 -44 31 -83 31
-86 0 -4 -30 -7 -66 -8 -49 -1 -65 3 -62 12 18 51 63 166 64 164 2 -1 17 -38
33 -82z"/>
</g>
</svg>
